<svg width="12" height="20" viewBox="0 0 12 20" fill="none" xmlns="http://www.w3.org/2000/svg">
<path d="M0.476479 6.53138C0.114413 6.1516 -0.0131639 5.73493 0.00105846 5.21544C0.0318246 4.09183 0.714205 2.96925 1.51645 2.21484C2.84452 0.965917 4.59175 0.460221 6.38914 0.523715C7.96491 0.579362 9.53977 1.13891 10.6299 2.31207C10.6584 2.34283 10.6865 2.37392 10.7143 2.40535C10.7421 2.43678 10.7694 2.46855 10.7964 2.50066C10.8234 2.53277 10.8499 2.5652 10.8761 2.59796C10.9023 2.63072 10.9281 2.6638 10.9534 2.69719C10.9788 2.73058 11.0038 2.76428 11.0283 2.79828C11.0529 2.83229 11.077 2.86658 11.1007 2.90118C11.1244 2.93577 11.1477 2.97064 11.1705 3.0058C11.1934 3.04096 11.2158 3.0764 11.2378 3.11212C11.2598 3.14783 11.2813 3.1838 11.3024 3.22005C11.3235 3.2563 11.3442 3.29279 11.3644 3.32951C11.3846 3.36626 11.4044 3.40325 11.4237 3.44048C11.443 3.47771 11.4618 3.51518 11.4802 3.55289C11.4986 3.59057 11.5165 3.62848 11.5339 3.6666C11.5514 3.70475 11.5684 3.74309 11.5849 3.78162C11.6014 3.82016 11.6174 3.8589 11.633 3.89785C11.6486 3.93678 11.6637 3.97591 11.6783 4.01523C11.6929 4.05453 11.707 4.09401 11.7207 4.13368C11.7343 4.17333 11.7474 4.21315 11.7601 4.25312C11.7728 4.2931 11.7849 4.33322 11.7966 4.3735C11.8083 4.41378 11.8195 4.4542 11.8302 4.49474C11.8409 4.53528 11.8511 4.57595 11.8608 4.61676C11.8705 4.65756 11.8797 4.69847 11.8884 4.73949C11.8971 4.78051 11.9053 4.82165 11.9129 4.86289C11.9206 4.9041 11.9278 4.94541 11.9345 4.9868C11.9412 5.02821 11.9473 5.06969 11.953 5.11124C11.9586 5.1528 11.9638 5.19442 11.9684 5.2361C11.9731 5.27777 11.9772 5.31951 11.9808 5.36129C11.9844 5.40305 11.9875 5.44487 11.9901 5.48674C11.9927 5.52859 11.9948 5.57047 11.9964 5.61239C11.9979 5.65428 11.999 5.6962 11.9995 5.73813C12 5.78007 12.0001 5.822 11.9996 5.86391C11.9991 5.90585 11.9981 5.94778 11.9966 5.98969C11.9458 7.33425 11.4195 8.41655 10.434 9.32326C10.0763 9.65237 9.68441 9.95189 9.28874 10.2336C8.73671 10.6463 8.10301 11.1672 7.80853 11.8037C7.6617 12.1139 7.64993 12.3548 7.56502 12.6711C7.42685 13.1858 7.03823 13.5706 6.5415 13.7478C6.03884 13.927 5.42031 13.9098 4.9375 13.6778C4.75088 13.5881 4.60248 13.4704 4.45672 13.3248C4.11323 12.9255 4.02184 12.5366 3.97636 12.024C3.97038 11.3615 4.24368 10.6987 4.58031 10.1409C4.66685 10.0012 4.76095 9.86649 4.85377 9.73096C5.07806 9.43115 5.32377 9.15007 5.59092 8.88772C5.87558 8.62239 6.16546 8.36288 6.46054 8.10919C7.06033 7.59077 7.85489 7.00792 8.05394 6.1992C8.16798 5.73581 8.0746 5.3217 7.83168 4.91984C7.44283 4.42412 6.89833 4.14434 6.27526 4.06957C5.58627 3.98685 4.87466 4.1194 4.32391 4.55941C3.67508 5.07776 3.72098 5.60202 3.32877 6.2383C2.99371 6.67472 2.62994 6.95341 2.06968 7.03021C1.56863 7.09891 1.04786 6.97976 0.643257 6.67217C0.585353 6.62813 0.530819 6.57967 0.476479 6.53138Z" fill="#DEDEDE"/>
<path d="M4.05293 18.3427C4.04632 18.3153 4.04028 18.2878 4.03481 18.2602C4.02936 18.2326 4.02449 18.2049 4.0202 18.1771C4.01593 18.1493 4.01223 18.1214 4.00911 18.0935C4.006 18.0655 4.00348 18.0375 4.00156 18.0094C3.99962 17.9813 3.99828 17.9532 3.99754 17.9251C3.99678 17.897 3.99663 17.8688 3.99708 17.8407C3.99752 17.8126 3.99854 17.7845 4.00016 17.7564C4.00179 17.7283 4.004 17.7002 4.00679 17.6722C4.00961 17.6442 4.01301 17.6163 4.01699 17.5885C4.02096 17.5606 4.02553 17.5328 4.03069 17.5052C4.03584 17.4775 4.04157 17.45 4.04789 17.4226C4.05419 17.3951 4.06108 17.3679 4.06856 17.3407C4.07601 17.3136 4.08403 17.2867 4.09262 17.2599C4.10123 17.2331 4.11039 17.2065 4.12012 17.1801C4.12982 17.1536 4.14008 17.1274 4.15091 17.1015C4.16173 17.0755 4.17309 17.0498 4.18501 17.0243C4.19692 16.9988 4.20935 16.9736 4.22232 16.9486C4.23529 16.9236 4.24878 16.8989 4.2628 16.8745C4.27681 16.8501 4.29133 16.826 4.30635 16.8022C4.32136 16.7785 4.33688 16.755 4.3529 16.7318C4.36893 16.7087 4.38541 16.6859 4.40237 16.6635C4.41935 16.641 4.4368 16.619 4.45472 16.5973C4.47261 16.5756 4.49097 16.5542 4.50978 16.5333C4.52857 16.5124 4.5478 16.4918 4.56748 16.4717C4.58714 16.4516 4.60723 16.4319 4.62774 16.4126C4.64823 16.3933 4.66912 16.3745 4.69042 16.3561C4.71171 16.3377 4.73338 16.3198 4.75541 16.3023C4.77747 16.2848 4.79988 16.2678 4.82264 16.2513C4.84541 16.2347 4.86852 16.2187 4.89195 16.2031C4.9154 16.1876 4.93916 16.1725 4.96322 16.1579C4.98731 16.1434 5.01168 16.1293 5.03633 16.1158C5.061 16.1023 5.08595 16.0892 5.11117 16.0768C5.13639 16.0643 5.16186 16.0523 5.18758 16.0409C5.2133 16.0295 5.23925 16.0186 5.26543 16.0083C5.2916 15.998 5.31798 15.9882 5.34455 15.979C5.37114 15.9698 5.39792 15.9612 5.42488 15.9531C5.45182 15.945 5.47893 15.9375 5.50619 15.9306C5.53348 15.9236 5.56089 15.9173 5.58842 15.9115C5.61595 15.9057 5.6436 15.9005 5.67137 15.8959C5.69912 15.8913 5.72695 15.8873 5.75487 15.8838C5.78279 15.8804 5.81078 15.8775 5.83883 15.8753C5.86689 15.873 5.89497 15.8713 5.92309 15.8703C5.95121 15.8692 5.97934 15.8687 6.00748 15.8688C6.03559 15.8689 6.06371 15.8696 6.09183 15.8709C6.11995 15.8722 6.14801 15.8741 6.17602 15.8765C6.20405 15.879 6.23201 15.8821 6.25991 15.8857C6.28781 15.8894 6.31563 15.8936 6.34335 15.8984C6.37108 15.9033 6.39868 15.9087 6.42617 15.9147C6.45368 15.9206 6.48103 15.9272 6.50824 15.9343C6.53546 15.9415 6.56252 15.9492 6.58942 15.9575C6.61629 15.9657 6.64299 15.9746 6.66952 15.984C6.69605 15.9934 6.72236 16.0034 6.74845 16.0139C6.77454 16.0244 6.8004 16.0354 6.82603 16.047C6.85166 16.0587 6.87705 16.0708 6.90218 16.0835C6.92729 16.0961 6.95212 16.1093 6.97669 16.1231C7.00125 16.1368 7.02553 16.151 7.0495 16.1658C7.07346 16.1805 7.0971 16.1957 7.12042 16.2115C7.14374 16.2272 7.16673 16.2434 7.18937 16.2601C7.21202 16.2768 7.2343 16.294 7.2562 16.3117C7.27813 16.3293 7.29966 16.3474 7.32081 16.366C7.34197 16.3845 7.36272 16.4035 7.38306 16.4229C7.40342 16.4424 7.42336 16.4622 7.44289 16.4825C7.4624 16.5028 7.48148 16.5234 7.50014 16.5445C7.51878 16.5656 7.53697 16.587 7.55471 16.6089C7.57045 16.6282 7.58581 16.6479 7.60081 16.6678C7.61581 16.6878 7.63042 16.708 7.64465 16.7285C7.65891 16.7489 7.67276 16.7697 7.68621 16.7907C7.69968 16.8117 7.71276 16.833 7.72544 16.8544C7.73811 16.8759 7.75037 16.8976 7.76222 16.9196C7.77408 16.9415 7.78554 16.9637 7.79659 16.9861C7.80762 17.0085 7.81822 17.031 7.8284 17.0538C7.8386 17.0766 7.84837 17.0995 7.85769 17.1227C7.86702 17.1458 7.87592 17.1691 7.88437 17.1926C7.89283 17.2161 7.90085 17.2397 7.90844 17.2634C7.91602 17.2872 7.92315 17.3111 7.92982 17.3352C7.93651 17.3592 7.94276 17.3833 7.94855 17.4076C7.95433 17.4319 7.95965 17.4562 7.96451 17.4807C7.96939 17.5052 7.97381 17.5298 7.97775 17.5544C7.98172 17.579 7.98522 17.6037 7.98825 17.6285C7.99128 17.6532 7.99385 17.678 7.99596 17.7029C7.99806 17.7278 7.99969 17.7527 8.00087 17.7776C8.00204 17.8025 8.00275 17.8274 8.00299 17.8524C8.00323 17.8773 8.00301 17.9023 8.00234 17.9272C8.00164 17.9521 8.00049 17.9771 7.99887 18.0019C7.99726 18.0269 7.99518 18.0517 7.99263 18.0765C7.99008 18.1013 7.98706 18.1261 7.98357 18.1508C7.9801 18.1755 7.97618 18.2002 7.9718 18.2247C7.9674 18.2493 7.96254 18.2737 7.95722 18.2981C7.95192 18.3225 7.94617 18.3468 7.93996 18.3709C7.93374 18.3951 7.92707 18.4191 7.91995 18.443C7.91284 18.4669 7.90529 18.4907 7.89729 18.5144C7.88929 18.538 7.88084 18.5615 7.87195 18.5848C7.86308 18.6081 7.85377 18.6312 7.84403 18.6542C7.83428 18.6772 7.82412 18.7 7.81352 18.7225C7.80293 18.7451 7.79192 18.7675 7.7805 18.7897C7.76906 18.8119 7.75721 18.8338 7.74496 18.8556C7.73271 18.8773 7.72006 18.8988 7.707 18.9201C7.69395 18.9413 7.6805 18.9623 7.66666 18.9831C7.65282 19.0038 7.63859 19.0243 7.62399 19.0446C7.60939 19.0648 7.59441 19.0847 7.57907 19.1044C7.56372 19.1241 7.54801 19.1434 7.53192 19.1625C7.51586 19.1816 7.49943 19.2004 7.48265 19.2188C7.46586 19.2373 7.44875 19.2555 7.43132 19.2733C7.41386 19.2911 7.39607 19.3086 7.37796 19.3258C7.35984 19.3429 7.34143 19.3597 7.3227 19.3762C7.30396 19.3927 7.28492 19.4088 7.26558 19.4246C7.24625 19.4403 7.22662 19.4557 7.2067 19.4708C7.1868 19.4858 7.16662 19.5004 7.14615 19.5147C7.12568 19.529 7.10497 19.5429 7.084 19.5564C7.06301 19.5699 7.04178 19.583 7.02031 19.5957C6.99884 19.6084 6.97714 19.6207 6.95521 19.6326C6.93328 19.6445 6.91114 19.656 6.88877 19.6671C6.86641 19.6782 6.84385 19.6888 6.82109 19.699C6.79834 19.7092 6.77541 19.719 6.7523 19.7284C6.72918 19.7378 6.70588 19.7467 6.6824 19.7552C6.65895 19.7637 6.63534 19.7718 6.61158 19.7794C6.58782 19.787 6.56394 19.7942 6.53992 19.8009C6.5159 19.8076 6.49176 19.8139 6.4675 19.8197C6.44324 19.8256 6.41888 19.8309 6.39442 19.8358C6.36997 19.8408 6.34542 19.8452 6.32079 19.8492C6.29616 19.8532 6.27147 19.8567 6.24671 19.8598C6.22195 19.8629 6.19714 19.8655 6.17229 19.8676C6.14742 19.8698 6.12253 19.8714 6.09762 19.8727C6.0727 19.8739 6.04777 19.8746 6.02281 19.8749C5.99787 19.8752 5.97293 19.875 5.94797 19.8744C5.92304 19.8737 5.89812 19.8726 5.87323 19.871C5.84832 19.8695 5.82346 19.8674 5.79865 19.8649C5.77383 19.8624 5.74905 19.8594 5.72434 19.856C5.69962 19.8526 5.67498 19.8487 5.65041 19.8443C5.62585 19.84 5.60137 19.8351 5.57698 19.8299C5.55261 19.8246 5.52834 19.8189 5.50417 19.8127C5.47999 19.8065 5.45594 19.7999 5.43201 19.7928C5.40808 19.7858 5.3843 19.7783 5.36067 19.7703C5.33702 19.7623 5.31352 19.7539 5.29018 19.7451C5.26685 19.7362 5.24371 19.727 5.22073 19.7173C5.19774 19.7076 5.17494 19.6974 5.15233 19.6869C5.12973 19.6763 5.10733 19.6653 5.08515 19.6539C5.06293 19.6426 5.04095 19.6308 5.0192 19.6185C4.99745 19.6063 4.97593 19.5937 4.95466 19.5807C4.93339 19.5677 4.91235 19.5542 4.89156 19.5404C4.87079 19.5266 4.85027 19.5124 4.83002 19.4979C4.80978 19.4833 4.7898 19.4684 4.7701 19.4531C4.75041 19.4377 4.73101 19.422 4.7119 19.406C4.69278 19.39 4.67398 19.3736 4.6555 19.3568C4.63699 19.3401 4.61881 19.323 4.60096 19.3056C4.58311 19.2882 4.56559 19.2704 4.54839 19.2523C4.53119 19.2342 4.51434 19.2158 4.49784 19.1971C4.48134 19.1784 4.46519 19.1594 4.44939 19.1401C4.43361 19.1208 4.41818 19.1012 4.40309 19.0813C4.38803 19.0614 4.37335 19.0412 4.35905 19.0208C4.34473 19.0004 4.3308 18.9797 4.31727 18.9587C4.30373 18.9378 4.2906 18.9166 4.27787 18.8951C4.26512 18.8737 4.25278 18.852 4.24086 18.8301C4.22891 18.8082 4.21739 18.786 4.2063 18.7637C4.19518 18.7413 4.18449 18.7188 4.17423 18.6961C4.16396 18.6733 4.15412 18.6504 4.1447 18.6273C4.13531 18.6042 4.12634 18.5809 4.11779 18.5575C4.10925 18.534 4.10115 18.5104 4.0935 18.4867C4.08585 18.4629 4.07864 18.4391 4.07186 18.415C4.0651 18.3911 4.05879 18.3669 4.05293 18.3427Z" fill="#DEDEDE"/>
</svg>
